<?xml version="1.0" encoding="UTF-8" standalone="no"?>
<svg
   xmlns:dc="http://purl.org/dc/elements/1.1/"
   xmlns:cc="http://creativecommons.org/ns#"
   xmlns:rdf="http://www.w3.org/1999/02/22-rdf-syntax-ns#"
   xmlns:svg="http://www.w3.org/2000/svg"
   xmlns="http://www.w3.org/2000/svg"
   xmlns:xlink="http://www.w3.org/1999/xlink"
   xmlns:sodipodi="http://sodipodi.sourceforge.net/DTD/sodipodi-0.dtd"
   xmlns:inkscape="http://www.inkscape.org/namespaces/inkscape"
   width="300"
   height="300"
   viewBox="0 0 79.374999 79.374999"
   version="1.1"
   id="svg8"
   inkscape:version="1.0.1 (3bc2e813f5, 2020-09-07)"
   sodipodi:docname="draft_face.svg">
  <defs
     id="defs2" />
  <sodipodi:namedview
     id="base"
     pagecolor="#ffffff"
     bordercolor="#666666"
     borderopacity="1.0"
     inkscape:pageopacity="0"
     inkscape:pageshadow="2"
     inkscape:zoom="1.4"
     inkscape:cx="213.36257"
     inkscape:cy="24.063846"
     inkscape:document-units="px"
     inkscape:current-layer="layer1"
     inkscape:document-rotation="0"
     showgrid="false"
     units="px"
     inkscape:window-width="1431"
     inkscape:window-height="1208"
     inkscape:window-x="3143"
     inkscape:window-y="182"
     inkscape:window-maximized="0" />
  <metadata
     id="metadata5">
    <rdf:RDF>
      <cc:Work
         rdf:about="">
        <dc:format>image/svg+xml</dc:format>
        <dc:type
           rdf:resource="http://purl.org/dc/dcmitype/StillImage" />
        <dc:title />
      </cc:Work>
    </rdf:RDF>
  </metadata>
  <g
     inkscape:label="Layer 1"
     inkscape:groupmode="layer"
     id="layer1">
    <rect
       style="fill:#d5eff3;fill-opacity:1;stroke:none;stroke-width:2.5059;stroke-dasharray:2.5059, 2.50590000000000002;stop-color:#000000"
       id="rect833"
       width="79.375"
       height="79.375"
       x="0"
       y="0" />
    <path
       id="path833-9"
       style="opacity:1;fill:#ffffff;fill-opacity:1;stroke-width:1.50932;stroke-dasharray:1.50932, 1.50932;stop-color:#000000"
       d="m 17.038434,5.2785379 c -3.093147,1.315e-4 -5.919753,1.7508977 -7.297746,4.5201367 -0.2390518,-0.02872 -0.4795985,-0.04321 -0.7203694,-0.04341 -3.3579985,7.3e-5 -6.0801758,2.7222504 -6.080249,6.0802494 -2.123e-4,3.3582 2.7220487,6.080693 6.080249,6.080766 L 25.92523,22.250109 c 3.357998,-7.3e-5 6.080174,-2.72225 6.080249,-6.080249 -7.5e-5,-3.357998 -2.722251,-6.080175 -6.080249,-6.080248 -0.465181,2.1e-5 -0.928824,0.05342 -1.381828,0.159163 C 23.26619,7.2357796 20.31096,5.2786493 17.038434,5.2785379 Z"
       sodipodi:nodetypes="cccccccccc" />
    <path
       id="path833-9-0"
       style="opacity:1;fill:#ffffff;fill-opacity:1;stroke-width:1.50932;stroke-dasharray:1.50932, 1.50932;stop-color:#000000"
       d="m 63.710345,1.4031868 c -3.093147,1.315e-4 -5.919752,1.7508975 -7.297746,4.5201375 -0.239052,-0.02872 -0.479598,-0.04321 -0.720369,-0.04341 -3.357999,7.3e-5 -6.080176,2.72225 -6.080249,6.0802487 -2.12e-4,3.3582 2.722048,6.080693 6.080249,6.080766 l 16.904911,0.333829 c 3.357998,-7.3e-5 6.080173,-2.72225 6.08025,-6.080249 -7.7e-5,-3.3579977 -2.722252,-6.0801747 -6.08025,-6.0802477 -0.465181,2.1e-5 -0.928824,0.05342 -1.381828,0.159163 -1.277212,-3.012996 -4.232442,-4.9701261 -7.504968,-4.9702375 z"
       sodipodi:nodetypes="cccccccccc" />
    <path
       id="path833-9-2"
       style="opacity:1;fill:#ffffff;fill-opacity:1;stroke-width:1.50932;stroke-dasharray:1.50932, 1.50932;stop-color:#000000"
       d="m 48.075078,18.642071 c -3.093147,1.32e-4 -5.919752,1.750898 -7.297745,4.520137 -0.239052,-0.02872 -0.479599,-0.04321 -0.72037,-0.04341 -3.357998,7.3e-5 -6.080176,2.72225 -6.080249,6.080249 -2.12e-4,3.3582 2.722049,6.080693 6.080249,6.080766 l 16.904911,0.333829 c 3.357998,-7.3e-5 6.080173,-2.72225 6.08025,-6.080249 -7.7e-5,-3.357998 -2.722252,-6.080175 -6.08025,-6.080248 -0.465181,2.1e-5 -0.928824,0.05342 -1.381828,0.159163 -1.277212,-3.012996 -4.232442,-4.970126 -7.504968,-4.970237 z"
       sodipodi:nodetypes="cccccccccc" />
    <path
       id="path833"
       style="opacity:0.7;fill:#22daff;fill-opacity:1;stroke-width:1.95469;stroke-dasharray:1.95469, 1.95469000000000004;stop-color:#000000"
       d="m 9.4098853,32.837015 c -5.8305514,0 -10.557494,4.726945 -10.557494,10.557494 0,5.700611 5.3935762,14.554747 10.2272808,15.224394 l -0.6449219,1.187006 -0.9942539,1.829863 1.969389,0.01188 1.9688727,0.01188 -0.974619,-1.841746 -0.6118488,-1.156001 C 15.054765,58.52328 19.966864,49.087381 19.966864,43.394509 c 0,-5.830549 -4.726428,-10.557494 -10.5569787,-10.557494 z" />
    <path
       style="fill:none;stroke:#8a8a8a;stroke-width:0.264583px;stroke-linecap:butt;stroke-linejoin:miter;stroke-opacity:1"
       d="M 9.0730915,62.604472 V 80.715397"
       id="path960"
       sodipodi:nodetypes="cc" />
    <path
       id="path833-0"
       style="opacity:0.7;fill:#ffa00a;fill-opacity:1;stroke-width:1.95469;stroke-dasharray:1.95469, 1.95469;stop-color:#000000"
       d="m 40.660055,34.442163 c -5.830552,0 -10.557494,4.726945 -10.557494,10.557494 0,5.700611 5.393576,14.554747 10.227281,15.224394 l -0.644923,1.187006 -0.994253,1.829864 1.969389,0.01188 1.968873,0.01188 -0.974619,-1.841746 -0.611849,-1.156001 c 5.262474,-0.138506 10.174573,-9.574405 10.174573,-15.267277 0,-5.830549 -4.726428,-10.557494 -10.556978,-10.557494 z" />
    <path
       id="path833-15"
       style="opacity:0.7;fill:#fff212;fill-opacity:1;stroke:none;stroke-width:1.95469;stroke-dasharray:1.95469, 1.95469;stroke-opacity:1;stop-color:#000000"
       d="m 25.03497,42.852133 c -5.830552,0 -10.557494,4.726945 -10.557494,10.557494 0,5.700611 5.393576,14.554747 10.227281,15.224394 l -0.644923,1.187006 -0.994253,1.829864 1.969389,0.01188 1.968873,0.01188 -0.974619,-1.841746 -0.611849,-1.156001 c 5.262475,-0.138506 10.174574,-9.574405 10.174574,-15.267277 0,-5.830549 -4.726428,-10.557494 -10.556979,-10.557494 z" />
    <path
       id="path833-5"
       style="opacity:0.7;fill:#ff1440;fill-opacity:1;stroke-width:1.95469;stroke-dasharray:1.95469, 1.95469000000000004;stop-color:#000000"
       d="m 71.910227,32.552282 c -5.830552,0 -10.557494,4.726945 -10.557494,10.557494 0,5.700611 5.393576,14.554747 10.227281,15.224394 l -0.644922,1.187006 -0.994254,1.829864 1.969389,0.01188 1.968873,0.01188 -0.974619,-1.841746 -0.611849,-1.156001 c 5.262475,-0.138506 10.174574,-9.574405 10.174574,-15.267277 0,-5.830549 -4.726428,-10.557494 -10.556979,-10.557494 z" />
    <path
       id="path833-7"
       style="opacity:0.7;fill:#ff9dfc;fill-opacity:1;stroke-width:1.95469;stroke-dasharray:1.95469, 1.95469;stop-color:#000000"
       d="m 56.285142,46.348413 c -5.830552,0 -10.557494,4.726945 -10.557494,10.557494 0,5.700611 5.393576,14.554747 10.227281,15.224394 l -0.644922,1.187006 -0.994254,1.829864 1.969389,0.01188 1.968873,0.01188 -0.974619,-1.841746 -0.611849,-1.156001 c 5.262475,-0.138506 10.174574,-9.574405 10.174574,-15.267277 0,-5.830549 -4.726428,-10.557494 -10.556979,-10.557494 z" />
    <text
       xml:space="preserve"
       style="font-style:normal;font-weight:normal;font-size:10.5833px;line-height:1.25;font-family:sans-serif;fill:#000000;fill-opacity:1;stroke:none;stroke-width:0.264583;opacity:0.50159744;"
       x="5.0081849"
       y="30.805059"
       id="text997"><tspan
         sodipodi:role="line"
         id="tspan995"
         x="5.0081849"
         y="30.805059"
         style="font-size:22.5778px;stroke-width:0.264583;fill:#000000;fill-opacity:1;">23:46</tspan></text>
    <path
       id="path833-15-5-5"
       style="opacity:1;fill:#ec2049;fill-opacity:1;stroke:none;stroke-width:1.95469;stroke-dasharray:1.95469, 1.95469000000000004;stroke-opacity:1;stop-color:#000000"
       d="m 55.279275,81.216689 c -5.830552,0 -10.557494,4.726945 -10.557494,10.557494 0,5.700605 5.393576,14.554747 10.227281,15.224387 l -0.644923,1.18701 -0.994253,1.82986 1.969389,0.0119 1.968873,0.0119 -0.974619,-1.84174 -0.611849,-1.156 c 5.262475,-0.13853 10.174574,-9.574432 10.174574,-15.267297 0,-5.830549 -4.726428,-10.557494 -10.556979,-10.557494 z" />
    <path
       id="path833-15-5-5-4"
       style="opacity:1;fill:#a7225f;fill-opacity:1;stroke:none;stroke-width:1.95469;stroke-dasharray:1.95469, 1.95469000000000004;stroke-opacity:1;stop-color:#000000"
       d="m 30.521834,88.587226 c -5.830551,0 -10.557494,4.726945 -10.557494,10.557494 0,5.7006 5.393576,14.55475 10.227281,15.22439 l -0.644922,1.18701 -0.994254,1.82986 1.969389,0.0119 1.968873,0.0119 -0.974619,-1.84174 -0.611849,-1.156 c 5.262475,-0.13855 10.174574,-9.57446 10.174574,-15.26732 0,-5.830549 -4.726428,-10.557494 -10.556979,-10.557494 z" />
    <path
       id="path833-15-5-5-7"
       style="opacity:1;fill:#f7db4f;fill-opacity:1;stroke:none;stroke-width:1.95469;stroke-dasharray:1.95469, 1.95469000000000004;stroke-opacity:1;stop-color:#000000"
       d="m 45.073918,110.69883 c -5.830552,0 -10.557494,4.72695 -10.557494,10.5575 0,5.7006 5.393576,14.55474 10.227281,15.22438 l -0.644923,1.18702 -0.994253,1.82985 1.969389,0.0119 1.968873,0.0119 -0.974619,-1.84174 -0.611849,-1.156 c 5.262475,-0.13855 10.174574,-9.57445 10.174574,-15.26731 0,-5.83055 -4.726428,-10.5575 -10.556979,-10.5575 z" />
    <path
       id="path833-15-5-5-8"
       style="opacity:1;fill:#f26b38;fill-opacity:1;stroke:none;stroke-width:1.95469;stroke-dasharray:1.95469, 1.95469000000000004;stroke-opacity:1;stop-color:#000000"
       d="m 25.608144,104.74571 c -5.830552,0 -10.557494,4.72694 -10.557494,10.55749 0,5.7006 5.393576,14.55474 10.227281,15.22438 l -0.644923,1.18702 -0.994253,1.82985 1.969389,0.0119 1.968873,0.0119 -0.974619,-1.84174 -0.611849,-1.156 c 5.262475,-0.13855 10.174574,-9.57445 10.174574,-15.26731 0,-5.83055 -4.726428,-10.55749 -10.556979,-10.55749 z" />
    <path
       id="path833-15-5-5-5"
       style="opacity:1;fill:#2f9599;fill-opacity:1;stroke:none;stroke-width:1.95469;stroke-dasharray:1.95469, 1.95469000000000004;stroke-opacity:1;stop-color:#000000"
       d="m 71.248768,100.1155 c -5.830552,0 -10.557494,4.72694 -10.557494,10.55749 0,5.70061 5.393576,14.55475 10.227281,15.22439 l -0.644923,1.18702 -0.994253,1.82985 1.969389,0.0119 1.968873,0.0119 -0.974619,-1.84174 -0.611849,-1.156 c 5.262475,-0.13855 10.174574,-9.57445 10.174574,-15.26732 0,-5.83055 -4.726428,-10.55749 -10.556979,-10.55749 z" />
    <image
       sodipodi:absref="C:\Users\alice\Documents\balloonstats-fitbit\resources\icons\azm_36px.png"
       xlink:href="../resources/icons/azm_36px.png"
       y="-17.441685"
       x="14.931335"
       id="image978"
       preserveAspectRatio="none"
       height="12.7"
       width="12.7" />
    <image
       sodipodi:absref="C:\Users\alice\Documents\balloonstats-fitbit\resources\icons\calories_36px.png"
       xlink:href="../resources/icons/calories_36px.png"
       y="-16.372608"
       x="32.136814"
       id="image992"
       preserveAspectRatio="none"
       height="12.7"
       width="12.7" />
    <image
       sodipodi:absref="C:\Users\alice\Documents\balloonstats-fitbit\resources\icons\distance_36px.png"
       xlink:href="../resources/icons/distance_36px.png"
       y="-19.045301"
       x="49.108429"
       id="image1006"
       preserveAspectRatio="none"
       height="12.7"
       width="12.7" />
    <image
       sodipodi:absref="C:\Users\alice\Documents\balloonstats-fitbit\resources\icons\floors_36px.png"
       xlink:href="../resources/icons/floors_36px.png"
       y="-18.243494"
       x="67.416389"
       id="image1020"
       preserveAspectRatio="none"
       height="12.7"
       width="12.7" />
    <image
       sodipodi:absref="C:\Users\alice\Documents\balloonstats-fitbit\resources\icons\heart_rate_36px.png"
       xlink:href="../resources/icons/heart_rate_36px.png"
       y="-18.778032"
       x="-5.1472869"
       id="image1034"
       preserveAspectRatio="none"
       height="12.7"
       width="12.7" />
    <image
       sodipodi:absref="C:\Users\alice\Documents\balloonstats-fitbit\resources\icons\steps_36px.png"
       xlink:href="../resources/icons/steps_36px.png"
       y="-5.6143646"
       x="83.234688"
       id="image1048"
       preserveAspectRatio="none"
       height="12.7"
       width="12.7" />
    <path
       id="rect1052"
       style="opacity:1;fill:#ffffff;fill-opacity:1;stroke-width:2.35145;stroke-dasharray:2.35145, 2.35145;stop-color:#000000"
       d="m 77.276773,-18.243494 v 3.207039 h -3.240629 v 3.140377 h -3.190502 v 3.107304 h 9.187037 v -2.772958 h 0.08371 v -3.474723 -3.207039 z"
       inkscape:export-xdpi="96"
       inkscape:export-ydpi="96" />
    <path
       id="path1079"
       style="opacity:1;fill:#ffffff;fill-opacity:1;stroke-width:2.165;stroke-dasharray:2.165, 2.165;stop-color:#000000"
       d="m 54.219249,-18.618879 c -2.204908,0 -3.992523,1.734887 -3.992523,3.875216 0,2.140329 2.221566,5.7464244 3.925342,7.0827724 1.503323,-1.236122 4.059185,-4.9424434 4.059185,-7.0827724 0,-2.140329 -1.787099,-3.875216 -3.992004,-3.875216 z m -0.05633,2.872693 a 1.1024867,1.1024867 0 0 1 0.0062,0 1.1024867,1.1024867 0 0 1 1.102259,1.102775 1.1024867,1.1024867 0 0 1 -1.102259,1.102259 1.1024867,1.1024867 0 0 1 -1.102776,-1.102259 1.1024867,1.1024867 0 0 1 1.096574,-1.102775 z"
       inkscape:export-xdpi="96"
       inkscape:export-ydpi="96" />
    <path
       id="path1086"
       style="opacity:1;fill:#ffffff;fill-opacity:1;stroke-width:2.67208;stroke-dasharray:2.67208, 2.67208;stop-color:#000000"
       d="m 40.127488,-15.518654 c -1.127339,0.634592 -2.301465,1.861725 -2.624648,3.476273 0.0076,0.288081 -0.242813,0.907509 -0.114721,1.618506 0.133636,0.7418094 0.490895,1.5425294 0.233577,1.6872364 -0.445558,0.250564 -0.908754,-1.201893 -0.8847,-1.6541634 0.05159,-0.969884 -0.276985,-1.024227 -0.276985,-1.024227 -0.68522,0.313531 -1.310322,1.8872304 -1.310515,3.1124724 -1.43e-4,2.343437 1.996815,4.243221 4.460192,4.243152 2.463377,7e-5 4.460338,-1.899714 4.460195,-4.243152 5.3e-5,-0.872971 -0.404069,-1.7818104 -0.752927,-2.3585124 -0.743009,-1.228274 -3.224345,-3.18798 -3.189468,-4.857585 z"
       sodipodi:nodetypes="cccssccccsc"
       inkscape:export-xdpi="96"
       inkscape:export-ydpi="96" />
    <g
       id="g1143"
       transform="translate(2.078869,-0.18898796)"
       style="fill:#ffffff;fill-opacity:1"
       inkscape:export-xdpi="96"
       inkscape:export-ydpi="96">
      <path
         id="rect1096"
         style="opacity:1;fill:#ffffff;fill-opacity:1;stroke:none;stroke-width:9.6144;stroke-dasharray:9.6144, 9.6144;stop-color:#000000"
         d="m 79.260285,-35.641747 -11.572785,5.73745 c -1.653874,0.818512 -2.395812,2.841105 -1.664062,4.535156 l 0.0098,0.02148 c 0.73175,1.694051 2.650813,2.400543 4.304688,1.582031 l 10.095703,-4.998047 10.09375,4.998047 c 1.653878,0.818514 3.574891,0.112019 4.30664,-1.582031 l 0.0098,-0.02148 c 0.731749,-1.69405 -0.01019,-3.716642 -1.664062,-4.535156 l -11.451451,-5.69894 c -1.401615,-0.734709 -2.468021,-0.03851 -2.468021,-0.03851 z"
         transform="scale(0.26458333)"
         sodipodi:nodetypes="cccccccccccc" />
      <path
         id="rect1096-2"
         style="opacity:1;fill:#ffffff;fill-opacity:1;stroke:none;stroke-width:2.54381;stroke-dasharray:2.54381, 2.54381;stop-color:#000000"
         d="m 20.970943,-12.719745 -3.061966,1.518033 c -0.437587,0.216565 -0.633892,0.751709 -0.440283,1.199926 l 0.0026,0.0057 c 0.193609,0.4482209 0.701361,0.6351469 1.138949,0.4185823 l 2.671155,-1.3223993 2.670638,1.3223993 c 0.437588,0.2165652 0.945856,0.029638 1.139465,-0.4185793 l 0.0026,-0.0057 c 0.193611,-0.448219 -0.0027,-0.983363 -0.44028,-1.199929 l -3.029864,-1.507844 c -0.370843,-0.194392 -0.652997,-0.01019 -0.652997,-0.01019 z"
         sodipodi:nodetypes="cccccccccccc" />
      <path
         id="rect1096-5"
         style="opacity:1;fill:#ffffff;fill-opacity:1;stroke:none;stroke-width:2.54381;stroke-dasharray:2.54381, 2.54381;stop-color:#000000"
         d="m 20.970943,-16.009271 -3.061966,1.518033 c -0.437587,0.216565 -0.633892,0.751709 -0.440283,1.199927 l 0.0026,0.0057 c 0.193609,0.448221 0.701361,0.635147 1.138949,0.418583 l 2.671155,-1.322401 2.670638,1.322401 c 0.437588,0.216565 0.945856,0.02964 1.139465,-0.41858 l 0.0026,-0.0057 c 0.193611,-0.44822 -0.0027,-0.983364 -0.44028,-1.19993 l -3.029864,-1.507844 c -0.370843,-0.194392 -0.652997,-0.01019 -0.652997,-0.01019 z"
         sodipodi:nodetypes="cccccccccccc" />
    </g>
    <path
       id="path1145"
       style="opacity:1;fill:#ffffff;fill-opacity:1;stroke:none;stroke-width:2.42772;stroke-dasharray:2.42772, 2.42771999999999988;stop-color:#000000"
       d="m -1.3703851,-17.481325 c -1.500394,0 -2.5438112,1.23686 -2.7166301,2.740401 -0.2893526,2.517394 3.7081735,6.899668 5.3469604,7.2264327 v 0.021704 c 0.028817,0 0.060617,-0.0049 0.091467,-0.00827 0.030667,0.00333 0.062296,0.00827 0.090951,0.00827 v -0.021704 c 1.6387869,-0.3267647 5.6363129,-4.7090387 5.3469604,-7.2264327 -0.1728198,-1.503541 -1.2162361,-2.740401 -2.71663,-2.740401 -1.3028308,0 -2.4423645,0.995743 -2.7212809,1.607137 -0.2787727,-0.611378 -1.41883735,-1.607137 -2.7217978,-1.607137 z"
       inkscape:export-xdpi="96"
       inkscape:export-ydpi="96" />
    <path
       style="fill:#ffffff;fill-opacity:1;stroke:none;stroke-width:0.264583px;stroke-linecap:butt;stroke-linejoin:miter;stroke-opacity:1"
       d="m 87.477866,-6.6618301 c -1.387112,0.818379 -3.387362,2.499986 -3.212799,4.44122 0.107614,1.196734 1.849603,1.54550504 2.763951,2.52771604 0.952392,1.02307896 2.361265,3.00034766 2.929315,3.16555026 1.30201,0.3786557 6.634946,0.083046 6.771846,-0.4269021 0.16962,-0.6318701 -0.38716,-1.3146562 -0.77738,-1.6401552 -0.20637,-0.17214 -1.81093,-0.45336396 -2.21774,-1.11635496 -0.2648,-0.431545 -0.47409,-1.100142 -0.86174,-1.194348 -0.407346,0.08812 -0.897013,0.20449 -1.060395,-0.17989904 -0.298133,-0.701418 1.028745,-0.191227 0.593656,-1.256591 -0.200689,-0.49141 -0.885373,0.710543 -1.31096,-0.233369 -0.139656,-0.309743 0.968166,-0.470122 0.8972,-0.901051 -0.08606,-0.522583 -7.9e-5,-0.537766 -0.341701,-0.999802 -0.304492,-0.411819 -1.168281,0.473845 -2.082717,0.02432 0,0 -0.877006,-0.780192 -1.079968,-1.30048 -0.155487,-0.398586 0.05285,-0.732383 -0.359388,-1.025105 0,0 -0.333651,-0.07209 -0.65118,0.115252 z"
       id="path1183"
       sodipodi:nodetypes="ssssssscsssssssss"
       inkscape:export-xdpi="96"
       inkscape:export-ydpi="96" />
  </g>
</svg>
